<svg width="217" height="68" viewBox="0 0 217 68" fill="none" xmlns="http://www.w3.org/2000/svg">
<path d="M70.56 11.2V56H89.184V49.6H77.6V11.2H70.56ZM91.6715 21.952V45.248C91.6715 52.416 95.4475 56.512 102.36 56.512C109.272 56.512 113.048 52.416 113.048 45.248V21.952C113.048 14.784 109.272 10.688 102.36 10.688C95.4475 10.688 91.6715 14.784 91.6715 21.952ZM98.7115 45.696V21.504C98.7115 18.304 100.12 17.088 102.36 17.088C104.6 17.088 106.008 18.304 106.008 21.504V45.696C106.008 48.896 104.6 50.112 102.36 50.112C100.12 50.112 98.7115 48.896 98.7115 45.696ZM117.047 21.952V45.248C117.047 52.416 120.823 56.512 127.735 56.512C134.647 56.512 138.423 52.416 138.423 45.248V21.952C138.423 14.784 134.647 10.688 127.735 10.688C120.823 10.688 117.047 14.784 117.047 21.952ZM124.087 45.696V21.504C124.087 18.304 125.495 17.088 127.735 17.088C129.975 17.088 131.383 18.304 131.383 21.504V45.696C131.383 48.896 129.975 50.112 127.735 50.112C125.495 50.112 124.087 48.896 124.087 45.696ZM152.214 38.144L159.062 56H166.294L156.502 31.168L166.294 11.2H159.253L150.038 30.72V11.2H142.998V56H150.038V42.24L152.214 38.144ZM175.968 11.2H168.928V45.312C168.928 52.48 172.512 56.576 179.424 56.576C186.336 56.576 189.92 52.48 189.92 45.312V11.2H183.264V45.76C183.264 48.96 181.856 50.112 179.616 50.112C177.376 50.112 175.968 48.96 175.968 45.76V11.2ZM205.116 11.2H194.748V56H201.788V39.168H205.116C212.156 39.168 215.612 35.264 215.612 28.096V22.272C215.612 15.104 212.156 11.2 205.116 11.2ZM201.788 17.6H205.116C207.356 17.6 208.572 18.624 208.572 21.824V28.544C208.572 31.744 207.356 32.768 205.116 32.768H201.788V17.6Z" fill="#D3D3D3"/>
<path d="M22.95 64H32.47C31.535 61.79 31.45 59.665 31.45 56.775V47.595C31.45 41.39 29.92 36.885 25.245 34.93C29.41 32.975 31.365 28.98 31.365 22.86V18.185C31.365 9.005 27.2 4.5 17.51 4.5H3.4V64H12.75V39.775H15.98C20.23 39.775 22.1 41.815 22.1 47.34V56.69C22.1 61.535 22.44 62.47 22.95 64ZM12.75 13H17.255C20.57 13 22.015 14.87 22.015 19.12V24.985C22.015 29.745 19.89 31.275 16.405 31.275H12.75V13ZM37.0042 19.29V49.72C37.0042 59.24 42.0192 64.68 51.1992 64.68C60.3792 64.68 65.3942 59.24 65.3942 49.72V38.84C65.3942 30.085 61.9092 25.24 55.0242 25.24C50.8592 25.24 47.9692 27.11 46.3542 30.51V19.63C46.3542 13.935 48.2242 12.32 51.5392 12.32C54.5142 12.32 56.3842 13.935 56.3842 18.185V20.31H65.2242V18.78C65.2242 9.26 60.4642 3.82 51.2842 3.82C41.5942 3.82 37.0042 9.26 37.0042 19.29ZM51.1992 33.74C54.1742 33.74 56.0442 35.355 56.0442 39.605V50.315C56.0442 54.565 54.1742 56.095 51.1992 56.095C48.2242 56.095 46.3542 54.565 46.3542 50.315V39.605C46.3542 35.355 48.2242 33.74 51.1992 33.74Z" fill="#FFD800"/>
</svg>
