<svg width="265" height="68" viewBox="0 0 265 68" fill="none" xmlns="http://www.w3.org/2000/svg">
<path d="M70.56 11.2V56H89.184V49.6H77.6V11.2H70.56ZM91.6715 21.952V45.248C91.6715 52.416 95.4475 56.512 102.36 56.512C109.272 56.512 113.048 52.416 113.048 45.248V21.952C113.048 14.784 109.272 10.688 102.36 10.688C95.4475 10.688 91.6715 14.784 91.6715 21.952ZM98.7115 45.696V21.504C98.7115 18.304 100.12 17.088 102.36 17.088C104.6 17.088 106.008 18.304 106.008 21.504V45.696C106.008 48.896 104.6 50.112 102.36 50.112C100.12 50.112 98.7115 48.896 98.7115 45.696ZM117.047 21.952V45.248C117.047 52.416 120.823 56.512 127.735 56.512C134.647 56.512 138.423 52.416 138.423 45.248V21.952C138.423 14.784 134.647 10.688 127.735 10.688C120.823 10.688 117.047 14.784 117.047 21.952ZM124.087 45.696V21.504C124.087 18.304 125.495 17.088 127.735 17.088C129.975 17.088 131.383 18.304 131.383 21.504V45.696C131.383 48.896 129.975 50.112 127.735 50.112C125.495 50.112 124.087 48.896 124.087 45.696ZM152.214 38.144L159.062 56H166.294L156.502 31.168L166.294 11.2H159.253L150.038 30.72V11.2H142.998V56H150.038V42.24L152.214 38.144ZM175.968 11.2H168.928V45.312C168.928 52.48 172.512 56.576 179.424 56.576C186.336 56.576 189.92 52.48 189.92 45.312V11.2H183.264V45.76C183.264 48.96 181.856 50.112 179.616 50.112C177.376 50.112 175.968 48.96 175.968 45.76V11.2ZM205.116 11.2H194.748V56H201.788V39.168H205.116C212.156 39.168 215.612 35.264 215.612 28.096V22.272C215.612 15.104 212.156 11.2 205.116 11.2ZM201.788 17.6H205.116C207.356 17.6 208.572 18.624 208.572 21.824V28.544C208.572 31.744 207.356 32.768 205.116 32.768H201.788V17.6Z" fill="#D3D3D3"/>
<path d="M70.56 11.2V11H70.36V11.2H70.56ZM70.56 56H70.36V56.2H70.56V56ZM89.184 56V56.2H89.384V56H89.184ZM89.184 49.6H89.384V49.4H89.184V49.6ZM77.6 49.6H77.4V49.8H77.6V49.6ZM77.6 11.2H77.8V11H77.6V11.2ZM70.36 11.2V56H70.76V11.2H70.36ZM70.56 56.2H89.184V55.8H70.56V56.2ZM89.384 56V49.6H88.984V56H89.384ZM89.184 49.4H77.6V49.8H89.184V49.4ZM77.8 49.6V11.2H77.4V49.6H77.8ZM77.6 11H70.56V11.4H77.6V11ZM91.4715 21.952V45.248H91.8715V21.952H91.4715ZM91.4715 45.248C91.4715 48.8654 92.4245 51.7369 94.2779 53.7051C96.133 55.6752 98.8637 56.712 102.36 56.712V56.312C98.9433 56.312 96.33 55.3008 94.5691 53.4309C92.8065 51.5591 91.8715 48.7986 91.8715 45.248H91.4715ZM102.36 56.712C105.855 56.712 108.586 55.6752 110.441 53.7051C112.294 51.7369 113.248 48.8654 113.248 45.248H112.848C112.848 48.7986 111.913 51.5591 110.15 53.4309C108.389 55.3008 105.776 56.312 102.36 56.312V56.712ZM113.248 45.248V21.952H112.848V45.248H113.248ZM113.248 21.952C113.248 18.3346 112.294 15.4631 110.441 13.4949C108.586 11.5248 105.855 10.488 102.36 10.488V10.888C105.776 10.888 108.389 11.8992 110.15 13.7691C111.913 15.6409 112.848 18.4014 112.848 21.952H113.248ZM102.36 10.488C98.8637 10.488 96.133 11.5248 94.2779 13.4949C92.4245 15.4631 91.4715 18.3346 91.4715 21.952H91.8715C91.8715 18.4014 92.8065 15.6409 94.5691 13.7691C96.33 11.8992 98.9433 10.888 102.36 10.888V10.488ZM98.9115 45.696V21.504H98.5115V45.696H98.9115ZM98.9115 21.504C98.9115 19.9288 99.2586 18.882 99.8443 18.2296C100.426 17.5815 101.275 17.288 102.36 17.288V16.888C101.204 16.888 100.229 17.2025 99.5467 17.9624C98.8684 18.7179 98.5115 19.8792 98.5115 21.504H98.9115ZM102.36 17.288C103.444 17.288 104.293 17.5815 104.875 18.2296C105.46 18.882 105.808 19.9288 105.808 21.504H106.208C106.208 19.8792 105.851 18.7179 105.172 17.9624C104.49 17.2025 103.515 16.888 102.36 16.888V17.288ZM105.808 21.504V45.696H106.208V21.504H105.808ZM105.808 45.696C105.808 47.2712 105.46 48.318 104.875 48.9704C104.293 49.6185 103.444 49.912 102.36 49.912V50.312C103.515 50.312 104.49 49.9975 105.172 49.2376C105.851 48.482 106.208 47.3208 106.208 45.696H105.808ZM102.36 49.912C101.275 49.912 100.426 49.6185 99.8443 48.9704C99.2586 48.318 98.9115 47.2712 98.9115 45.696H98.5115C98.5115 47.3208 98.8684 48.482 99.5467 49.2376C100.229 49.9975 101.204 50.312 102.36 50.312V49.912ZM116.847 21.952V45.248H117.247V21.952H116.847ZM116.847 45.248C116.847 48.8654 117.8 51.7369 119.653 53.7051C121.508 55.6752 124.239 56.712 127.735 56.712V56.312C124.318 56.312 121.705 55.3008 119.944 53.4309C118.181 51.5591 117.247 48.7986 117.247 45.248H116.847ZM127.735 56.712C131.23 56.712 133.961 55.6752 135.816 53.7051C137.669 51.7369 138.623 48.8654 138.623 45.248H138.223C138.223 48.7986 137.288 51.5591 135.525 53.4309C133.764 55.3008 131.151 56.312 127.735 56.312V56.712ZM138.623 45.248V21.952H138.223V45.248H138.623ZM138.623 21.952C138.623 18.3346 137.669 15.4631 135.816 13.4949C133.961 11.5248 131.23 10.488 127.735 10.488V10.888C131.151 10.888 133.764 11.8992 135.525 13.7691C137.288 15.6409 138.223 18.4014 138.223 21.952H138.623ZM127.735 10.488C124.239 10.488 121.508 11.5248 119.653 13.4949C117.8 15.4631 116.847 18.3346 116.847 21.952H117.247C117.247 18.4014 118.181 15.6409 119.944 13.7691C121.705 11.8992 124.318 10.888 127.735 10.888V10.488ZM124.287 45.696V21.504H123.887V45.696H124.287ZM124.287 21.504C124.287 19.9288 124.634 18.882 125.219 18.2296C125.801 17.5815 126.65 17.288 127.735 17.288V16.888C126.579 16.888 125.604 17.2025 124.922 17.9624C124.243 18.7179 123.887 19.8792 123.887 21.504H124.287ZM127.735 17.288C128.819 17.288 129.668 17.5815 130.25 18.2296C130.835 18.882 131.183 19.9288 131.183 21.504H131.583C131.583 19.8792 131.226 18.7179 130.547 17.9624C129.865 17.2025 128.89 16.888 127.735 16.888V17.288ZM131.183 21.504V45.696H131.583V21.504H131.183ZM131.183 45.696C131.183 47.2712 130.835 48.318 130.25 48.9704C129.668 49.6185 128.819 49.912 127.735 49.912V50.312C128.89 50.312 129.865 49.9975 130.547 49.2376C131.226 48.482 131.583 47.3208 131.583 45.696H131.183ZM127.735 49.912C126.65 49.912 125.801 49.6185 125.219 48.9704C124.634 48.318 124.287 47.2712 124.287 45.696H123.887C123.887 47.3208 124.243 48.482 124.922 49.2376C125.604 49.9975 126.579 50.312 127.735 50.312V49.912ZM152.214 38.144L152.4 38.0724L152.243 37.6623L152.037 38.0502L152.214 38.144ZM159.062 56L158.875 56.0716L158.924 56.2H159.062V56ZM166.294 56V56.2H166.587L166.48 55.9266L166.294 56ZM156.502 31.168L156.322 31.0799L156.283 31.1592L156.315 31.2414L156.502 31.168ZM166.294 11.2L166.473 11.2881L166.614 11H166.294V11.2ZM159.253 11.2V11H159.127L159.073 11.1146L159.253 11.2ZM150.038 30.72H149.838L150.218 30.8054L150.038 30.72ZM150.038 11.2H150.238V11H150.038V11.2ZM142.998 11.2V11H142.798V11.2H142.998ZM142.998 56H142.798V56.2H142.998V56ZM150.038 56V56.2H150.238V56H150.038ZM150.038 42.24L149.861 42.1462L149.838 42.1902V42.24H150.038ZM152.027 38.2156L158.875 56.0716L159.248 55.9284L152.4 38.0724L152.027 38.2156ZM159.062 56.2H166.294V55.8H159.062V56.2ZM166.48 55.9266L156.688 31.0946L156.315 31.2414L166.107 56.0734L166.48 55.9266ZM156.681 31.2561L166.473 11.2881L166.114 11.1119L156.322 31.0799L156.681 31.2561ZM166.294 11H159.253V11.4H166.294V11ZM159.073 11.1146L149.857 30.6346L150.218 30.8054L159.434 11.2854L159.073 11.1146ZM150.238 30.72V11.2H149.838V30.72H150.238ZM150.038 11H142.998V11.4H150.038V11ZM142.798 11.2V56H143.198V11.2H142.798ZM142.998 56.2H150.038V55.8H142.998V56.2ZM150.238 56V42.24H149.838V56H150.238ZM150.214 42.3338L152.39 38.2378L152.037 38.0502L149.861 42.1462L150.214 42.3338ZM175.968 11.2H176.168V11H175.968V11.2ZM168.928 11.2V11H168.728V11.2H168.928ZM189.92 11.2H190.12V11H189.92V11.2ZM183.264 11.2V11H183.064V11.2H183.264ZM175.968 11H168.928V11.4H175.968V11ZM168.728 11.2V45.312H169.128V11.2H168.728ZM168.728 45.312C168.728 48.9268 169.631 51.7982 171.436 53.7671C173.244 55.739 175.927 56.776 179.424 56.776V56.376C176.008 56.376 173.443 55.365 171.731 53.4969C170.016 51.6258 169.128 48.8652 169.128 45.312H168.728ZM179.424 56.776C182.92 56.776 185.603 55.739 187.411 53.7671C189.216 51.7982 190.12 48.9268 190.12 45.312H189.72C189.72 48.8652 188.831 51.6258 187.116 53.4969C185.404 55.365 182.839 56.376 179.424 56.376V56.776ZM190.12 45.312V11.2H189.72V45.312H190.12ZM189.92 11H183.264V11.4H189.92V11ZM183.064 11.2V45.76H183.464V11.2H183.064ZM183.064 45.76C183.064 47.3353 182.716 48.3648 182.132 49.0007C181.551 49.6329 180.703 49.912 179.616 49.912V50.312C180.768 50.312 181.744 50.0151 182.427 49.2713C183.107 48.5312 183.464 47.3846 183.464 45.76H183.064ZM179.616 49.912C178.528 49.912 177.68 49.6329 177.099 49.0007C176.515 48.3648 176.168 47.3353 176.168 45.76H175.768C175.768 47.3846 176.124 48.5312 176.804 49.2713C177.487 50.0151 178.463 50.312 179.616 50.312V49.912ZM176.168 45.76V11.2H175.768V45.76H176.168ZM194.748 11.2V11H194.548V11.2H194.748ZM194.748 56H194.548V56.2H194.748V56ZM201.788 56V56.2H201.988V56H201.788ZM201.788 39.168V38.968H201.588V39.168H201.788ZM201.788 17.6V17.4H201.588V17.6H201.788ZM201.788 32.768H201.588V32.968H201.788V32.768ZM205.116 11H194.748V11.4H205.116V11ZM194.548 11.2V56H194.948V11.2H194.548ZM194.748 56.2H201.788V55.8H194.748V56.2ZM201.988 56V39.168H201.588V56H201.988ZM201.788 39.368H205.116V38.968H201.788V39.368ZM205.116 39.368C208.672 39.368 211.357 38.3811 213.15 36.4563C214.941 34.5341 215.812 31.7091 215.812 28.096H215.412C215.412 31.6509 214.554 34.3619 212.857 36.1837C211.162 38.0029 208.599 38.968 205.116 38.968V39.368ZM215.812 28.096V22.272H215.412V28.096H215.812ZM215.812 22.272C215.812 18.6589 214.941 15.8339 213.15 13.9117C211.357 11.9869 208.672 11 205.116 11V11.4C208.599 11.4 211.162 12.3651 212.857 14.1843C214.554 16.0061 215.412 18.7171 215.412 22.272H215.812ZM201.788 17.8H205.116V17.4H201.788V17.8ZM205.116 17.8C206.209 17.8 207.004 18.0499 207.534 18.645C208.069 19.2463 208.372 20.2418 208.372 21.824H208.772C208.772 20.2062 208.466 19.0897 207.833 18.379C207.195 17.6621 206.262 17.4 205.116 17.4V17.8ZM208.372 21.824V28.544H208.772V21.824H208.372ZM208.372 28.544C208.372 30.1262 208.069 31.1217 207.534 31.723C207.004 32.3181 206.209 32.568 205.116 32.568V32.968C206.262 32.968 207.195 32.7059 207.833 31.989C208.466 31.2783 208.772 30.1618 208.772 28.544H208.372ZM205.116 32.568H201.788V32.968H205.116V32.568ZM201.988 32.768V17.6H201.588V32.768H201.988Z" fill="#A8A8A8"/>
<path d="M22.95 64H32.47C31.535 61.79 31.45 59.665 31.45 56.775V47.595C31.45 41.39 29.92 36.885 25.245 34.93C29.41 32.975 31.365 28.98 31.365 22.86V18.185C31.365 9.005 27.2 4.5 17.51 4.5H3.4V64H12.75V39.775H15.98C20.23 39.775 22.1 41.815 22.1 47.34V56.69C22.1 61.535 22.44 62.47 22.95 64ZM12.75 13H17.255C20.57 13 22.015 14.87 22.015 19.12V24.985C22.015 29.745 19.89 31.275 16.405 31.275H12.75V13ZM37.0042 19.29V49.72C37.0042 59.24 42.0192 64.68 51.1992 64.68C60.3792 64.68 65.3942 59.24 65.3942 49.72V38.84C65.3942 30.085 61.9092 25.24 55.0242 25.24C50.8592 25.24 47.9692 27.11 46.3542 30.51V19.63C46.3542 13.935 48.2242 12.32 51.5392 12.32C54.5142 12.32 56.3842 13.935 56.3842 18.185V20.31H65.2242V18.78C65.2242 9.26 60.4642 3.82 51.2842 3.82C41.5942 3.82 37.0042 9.26 37.0042 19.29ZM51.1992 33.74C54.1742 33.74 56.0442 35.355 56.0442 39.605V50.315C56.0442 54.565 54.1742 56.095 51.1992 56.095C48.2242 56.095 46.3542 54.565 46.3542 50.315V39.605C46.3542 35.355 48.2242 33.74 51.1992 33.74Z" fill="#FFD800"/>
<path d="M22.95 64L22.7603 64.0632L22.8058 64.2H22.95V64ZM32.47 64V64.2H32.7718L32.6542 63.9221L32.47 64ZM25.245 34.93L25.16 34.749L24.7518 34.9405L25.1678 35.1145L25.245 34.93ZM3.4 4.5V4.3H3.2V4.5H3.4ZM3.4 64H3.2V64.2H3.4V64ZM12.75 64V64.2H12.95V64H12.75ZM12.75 39.775V39.575H12.55V39.775H12.75ZM12.75 13V12.8H12.55V13H12.75ZM12.75 31.275H12.55V31.475H12.75V31.275ZM22.95 64.2H32.47V63.8H22.95V64.2ZM32.6542 63.9221C31.7366 61.7532 31.65 59.6652 31.65 56.775H31.25C31.25 59.6648 31.3334 61.8268 32.2858 64.0779L32.6542 63.9221ZM31.65 56.775V47.595H31.25V56.775H31.65ZM31.65 47.595C31.65 41.3681 30.1139 36.7493 25.3222 34.7455L25.1678 35.1145C29.7261 37.0207 31.25 41.4118 31.25 47.595H31.65ZM25.33 35.111C29.5915 33.1107 31.565 29.0234 31.565 22.86H31.165C31.165 28.9366 29.2285 32.8393 25.16 34.749L25.33 35.111ZM31.565 22.86V18.185H31.165V22.86H31.565ZM31.565 18.185C31.565 13.569 30.5182 10.0859 28.2133 7.75924C25.9081 5.43228 22.3821 4.3 17.51 4.3V4.7C22.3279 4.7 25.7294 5.82022 27.9292 8.04075C30.1293 10.2616 31.165 13.621 31.165 18.185H31.565ZM17.51 4.3H3.4V4.7H17.51V4.3ZM3.2 4.5V64H3.6V4.5H3.2ZM3.4 64.2H12.75V63.8H3.4V64.2ZM12.95 64V39.775H12.55V64H12.95ZM12.75 39.975H15.98V39.575H12.75V39.975ZM15.98 39.975C18.0759 39.975 19.5351 40.4776 20.48 41.6135C21.433 42.7591 21.9 44.5912 21.9 47.34H22.3C22.3 44.5638 21.832 42.6134 20.7875 41.3577C19.7349 40.0923 18.1341 39.575 15.98 39.575V39.975ZM21.9 47.34V56.69H22.3V47.34H21.9ZM21.9 56.69C21.9 59.1155 21.985 60.5718 22.1358 61.6167C22.2873 62.6665 22.505 63.2974 22.7603 64.0632L23.1397 63.9368C22.885 63.1726 22.6777 62.571 22.5317 61.5596C22.385 60.5432 22.3 59.1095 22.3 56.69H21.9ZM12.75 13.2H17.255V12.8H12.75V13.2ZM17.255 13.2C18.8741 13.2 19.9948 13.6548 20.7202 14.5889C21.4547 15.5348 21.815 17.0099 21.815 19.12H22.215C22.215 16.9801 21.8528 15.3952 21.0361 14.3436C20.2102 13.2802 18.9509 12.8 17.255 12.8V13.2ZM21.815 19.12V24.985H22.215V19.12H21.815ZM21.815 24.985C21.815 27.3402 21.2887 28.8503 20.3747 29.7744C19.4616 30.6975 18.1226 31.075 16.405 31.075V31.475C18.1724 31.475 19.6384 31.0875 20.6591 30.0556C21.6788 29.0247 22.215 27.3898 22.215 24.985H21.815ZM16.405 31.075H12.75V31.475H16.405V31.075ZM12.95 31.275V13H12.55V31.275H12.95ZM46.3542 30.51H46.1542L46.5349 30.5958L46.3542 30.51ZM56.3842 20.31H56.1842V20.51H56.3842V20.31ZM65.2242 20.31V20.51H65.4242V20.31H65.2242ZM36.8042 19.29V49.72H37.2042V19.29H36.8042ZM36.8042 49.72C36.8042 54.5134 38.067 58.3089 40.5136 60.9071C42.962 63.5072 46.5694 64.88 51.1992 64.88V64.48C46.6491 64.48 43.1589 63.1328 40.8048 60.6329C38.4489 58.1311 37.2042 54.4466 37.2042 49.72H36.8042ZM51.1992 64.88C55.8291 64.88 59.4364 63.5072 61.8848 60.9071C64.3315 58.3089 65.5942 54.5134 65.5942 49.72H65.1942C65.1942 54.4466 63.9495 58.1311 61.5936 60.6329C59.2395 63.1328 55.7494 64.48 51.1992 64.48V64.88ZM65.5942 49.72V38.84H65.1942V49.72H65.5942ZM65.5942 38.84C65.5942 34.4409 64.7195 30.9911 62.951 28.6368C61.1753 26.2728 58.5188 25.04 55.0242 25.04V25.44C58.4147 25.44 60.9431 26.6297 62.6312 28.877C64.3265 31.1339 65.1942 34.4841 65.1942 38.84H65.5942ZM55.0242 25.04C52.9113 25.04 51.1097 25.5146 49.6279 26.4298C48.1457 27.3453 46.9952 28.6944 46.1736 30.4242L46.5349 30.5958C47.3282 28.9256 48.4302 27.6397 49.8381 26.7702C51.2462 25.9004 52.9722 25.44 55.0242 25.44V25.04ZM46.5542 30.51V19.63H46.1542V30.51H46.5542ZM46.5542 19.63C46.5542 16.7951 47.0215 15.0247 47.8605 13.9634C48.6891 12.9152 49.9129 12.52 51.5392 12.52V12.12C49.8505 12.12 48.4818 12.5323 47.5467 13.7153C46.6219 14.8853 46.1542 16.7698 46.1542 19.63H46.5542ZM51.5392 12.52C52.9913 12.52 54.1393 12.9132 54.9285 13.7924C55.7216 14.6758 56.1842 16.0848 56.1842 18.185H56.5842C56.5842 16.0352 56.1118 14.5117 55.2262 13.5251C54.3366 12.5343 53.0622 12.12 51.5392 12.12V12.52ZM56.1842 18.185V20.31H56.5842V18.185H56.1842ZM56.3842 20.51H65.2242V20.11H56.3842V20.51ZM65.4242 20.31V18.78H65.0242V20.31H65.4242ZM65.4242 18.78C65.4242 13.9892 64.2265 10.1938 61.8442 7.59485C59.4591 4.99303 55.9143 3.62 51.2842 3.62V4.02C55.8342 4.02 59.2593 5.36697 61.5493 7.86514C63.8419 10.3662 65.0242 14.0508 65.0242 18.78H65.4242ZM51.2842 3.62C46.4021 3.62 42.77 4.99144 40.362 7.65975C37.9574 10.3242 36.8042 14.2483 36.8042 19.29H37.2042C37.2042 14.3017 38.346 10.4907 40.6589 7.92774C42.9685 5.36856 46.4764 4.02 51.2842 4.02V3.62ZM51.1992 33.94C52.6513 33.94 53.7993 34.3332 54.5885 35.2124C55.3816 36.0958 55.8442 37.5048 55.8442 39.605H56.2442C56.2442 37.4552 55.7718 35.9317 54.8862 34.9451C53.9966 33.9543 52.7222 33.54 51.1992 33.54V33.94ZM55.8442 39.605V50.315H56.2442V39.605H55.8442ZM55.8442 50.315C55.8442 52.4153 55.3815 53.8018 54.5901 54.6634C53.8019 55.5214 52.6541 55.895 51.1992 55.895V56.295C52.7193 56.295 53.994 55.9036 54.8846 54.934C55.7719 53.9682 56.2442 52.4646 56.2442 50.315H55.8442ZM51.1992 55.895C49.7443 55.895 48.5965 55.5214 47.8084 54.6634C47.0169 53.8018 46.5542 52.4153 46.5542 50.315H46.1542C46.1542 52.4646 46.6265 53.9682 47.5138 54.934C48.4044 55.9036 49.6791 56.295 51.1992 56.295V55.895ZM46.5542 50.315V39.605H46.1542V50.315H46.5542ZM46.5542 39.605C46.5542 37.5048 47.0168 36.0958 47.8099 35.2124C48.5991 34.3332 49.7472 33.94 51.1992 33.94V33.54C49.6763 33.54 48.4018 33.9543 47.5123 34.9451C46.6266 35.9317 46.1542 37.4552 46.1542 39.605H46.5542Z" fill="#BC9F00"/>
<path d="M230.36 23.08L231.96 38H237.8L240.92 10H237.08L234.8 32.24L232.6 10H228.36L226.24 32.08L223.88 10H219.6L222.72 38H228.76L230.36 23.08ZM243.139 10V38H247.539V10H243.139ZM257.236 10H250.756V38H255.156V27.48H257.236C261.636 27.48 263.796 25.04 263.796 20.56V16.92C263.796 12.44 261.636 10 257.236 10ZM255.156 14H257.236C258.636 14 259.396 14.64 259.396 16.64V20.84C259.396 22.84 258.636 23.48 257.236 23.48H255.156V14Z" fill="#FFD800"/>
<path d="M230.36 23.08L230.559 23.0587H230.161L230.36 23.08ZM231.96 38L231.761 38.0213L231.78 38.2H231.96V38ZM237.8 38V38.2H237.979L237.999 38.0221L237.8 38ZM240.92 10L241.119 10.0221L241.144 9.8H240.92V10ZM237.08 10V9.8H236.899L236.881 9.9796L237.08 10ZM234.8 32.24L234.601 32.2597L234.999 32.2604L234.8 32.24ZM232.6 10L232.799 9.98031L232.781 9.8H232.6V10ZM228.36 10V9.8H228.178L228.161 9.98088L228.36 10ZM226.24 32.08L226.041 32.1013L226.439 32.0991L226.24 32.08ZM223.88 10L224.079 9.97874L224.06 9.8H223.88V10ZM219.6 10V9.8H219.376L219.401 10.0221L219.6 10ZM222.72 38L222.521 38.0221L222.541 38.2H222.72V38ZM228.76 38V38.2H228.94L228.959 38.0213L228.76 38ZM230.161 23.1013L231.761 38.0213L232.159 37.9787L230.559 23.0587L230.161 23.1013ZM231.96 38.2H237.8V37.8H231.96V38.2ZM237.999 38.0221L241.119 10.0221L240.721 9.97785L237.601 37.9779L237.999 38.0221ZM240.92 9.8H237.08V10.2H240.92V9.8ZM236.881 9.9796L234.601 32.2196L234.999 32.2604L237.279 10.0204L236.881 9.9796ZM234.999 32.2203L232.799 9.98031L232.401 10.0197L234.601 32.2597L234.999 32.2203ZM232.6 9.8H228.36V10.2H232.6V9.8ZM228.161 9.98088L226.041 32.0609L226.439 32.0991L228.559 10.0191L228.161 9.98088ZM226.439 32.0587L224.079 9.97874L223.681 10.0213L226.041 32.1013L226.439 32.0587ZM223.88 9.8H219.6V10.2H223.88V9.8ZM219.401 10.0221L222.521 38.0221L222.919 37.9779L219.799 9.97785L219.401 10.0221ZM222.72 38.2H228.76V37.8H222.72V38.2ZM228.959 38.0213L230.559 23.1013L230.161 23.0587L228.561 37.9787L228.959 38.0213ZM243.139 10V9.8H242.939V10H243.139ZM243.139 38H242.939V38.2H243.139V38ZM247.539 38V38.2H247.739V38H247.539ZM247.539 10H247.739V9.8H247.539V10ZM242.939 10V38H243.339V10H242.939ZM243.139 38.2H247.539V37.8H243.139V38.2ZM247.739 38V10H247.339V38H247.739ZM247.539 9.8H243.139V10.2H247.539V9.8ZM250.756 10V9.8H250.556V10H250.756ZM250.756 38H250.556V38.2H250.756V38ZM255.156 38V38.2H255.356V38H255.156ZM255.156 27.48V27.28H254.956V27.48H255.156ZM255.156 14V13.8H254.956V14H255.156ZM255.156 23.48H254.956V23.68H255.156V23.48ZM257.236 9.8H250.756V10.2H257.236V9.8ZM250.556 10V38H250.956V10H250.556ZM250.756 38.2H255.156V37.8H250.756V38.2ZM255.356 38V27.48H254.956V38H255.356ZM255.156 27.68H257.236V27.28H255.156V27.68ZM257.236 27.68C259.473 27.68 261.173 27.0591 262.313 25.8363C263.449 24.6161 263.996 22.8291 263.996 20.56H263.596C263.596 22.7709 263.063 24.4439 262.02 25.5637C260.979 26.6809 259.4 27.28 257.236 27.28V27.68ZM263.996 20.56V16.92H263.596V20.56H263.996ZM263.996 16.92C263.996 14.6509 263.449 12.8639 262.313 11.6437C261.173 10.4209 259.473 9.8 257.236 9.8V10.2C259.4 10.2 260.979 10.7991 262.02 11.9163C263.063 13.0361 263.596 14.7091 263.596 16.92H263.996ZM255.156 14.2H257.236V13.8H255.156V14.2ZM257.236 14.2C257.909 14.2 258.381 14.3539 258.692 14.703C259.008 15.0583 259.196 15.6578 259.196 16.64H259.596C259.596 15.6222 259.404 14.9017 258.991 14.437C258.571 13.9661 257.963 13.8 257.236 13.8V14.2ZM259.196 16.64V20.84H259.596V16.64H259.196ZM259.196 20.84C259.196 21.8222 259.008 22.4217 258.692 22.777C258.381 23.1261 257.909 23.28 257.236 23.28V23.68C257.963 23.68 258.571 23.5139 258.991 23.043C259.404 22.5783 259.596 21.8578 259.596 20.84H259.196ZM257.236 23.28H255.156V23.68H257.236V23.28ZM255.356 23.48V14H254.956V23.48H255.356Z" fill="#BC9F00"/>
</svg>
